<svg width="1024" height="1024" viewBox="0 0 1024 1024" fill="none" xmlns="http://www.w3.org/2000/svg">
<rect width="1024" height="1024" rx="200" fill="url(#paint0_linear)"/>
<path d="M512 1024V0M1024 512H0" stroke="#1C3A63" stroke-width="2"/>
<circle cx="512" cy="512" r="450" stroke="#1C3A63" stroke-width="2"/>
<circle cx="512" cy="512" r="300" stroke="#1C3A63" stroke-width="2"/>
<path d="M512 100L150 700H874L512 100Z" stroke="#1C3A63" stroke-width="2" stroke-dasharray="10 10"/>
<g filter="url(#filter0_d)">
<path d="M762.3 281.1C739.9 287.7 714.8 306.3 692.9 336.8L512 590.7L331.1 336.8C309.2 306.3 284.1 287.7 261.7 281.1C230.5 271.9 204.8 283.9 204.8 283.9L512 729L819.2 283.9C819.2 283.9 793.5 271.9 762.3 281.1Z" fill="url(#paint1_linear)"/>
<path d="M512 192L362 420H662L512 192Z" fill="url(#paint2_linear)"/>
</g>
<g filter="url(#filter1_d)">
<text x="512" y="800" text-anchor="middle" font-family="Arial, sans-serif" font-weight="bold" font-size="120" fill="url(#paint3_linear)" stroke="#00A3FF" stroke-width="4">aaxion</text>
</g>
<defs>
<filter id="filter0_d" x="180" y="170" width="664" height="580" filterUnits="userSpaceOnUse" color-interpolation-filters="sRGB">
<feFlood flood-opacity="0" result="BackgroundImageFix"/>
<feColorMatrix in="SourceAlpha" type="matrix" values="0 0 0 0 0 0 0 0 0 0 0 0 0 0 0 0 0 0 127 0" result="hardAlpha"/>
<feOffset dy="10"/>
<feGaussianBlur stdDeviation="10"/>
<feComposite in2="hardAlpha" operator="out"/>
<feColorMatrix type="matrix" values="0 0 0 0 0 0 0 0 0 0.4 0 0 0 0 1 0 0 0 0.5 0"/>
<feBlend mode="normal" in2="BackgroundImageFix" result="effect1_dropShadow"/>
<feBlend mode="normal" in="SourceGraphic" in2="effect1_dropShadow" result="shape"/>
</filter>
<filter id="filter1_d" x="200" y="700" width="624" height="140" filterUnits="userSpaceOnUse" color-interpolation-filters="sRGB">
<feFlood flood-opacity="0" result="BackgroundImageFix"/>
<feColorMatrix in="SourceAlpha" type="matrix" values="0 0 0 0 0 0 0 0 0 0 0 0 0 0 0 0 0 0 127 0" result="hardAlpha"/>
<feOffset dy="5"/>
<feGaussianBlur stdDeviation="5"/>
<feComposite in2="hardAlpha" operator="out"/>
<feColorMatrix type="matrix" values="0 0 0 0 0 0 0 0 0 0.4 0 0 0 0 1 0 0 0 0.5 0"/>
<feBlend mode="normal" in2="BackgroundImageFix" result="effect1_dropShadow"/>
<feBlend mode="normal" in="SourceGraphic" in2="effect1_dropShadow" result="shape"/>
</filter>
<linearGradient id="paint0_linear" x1="0" y1="0" x2="1024" y2="1024" gradientUnits="userSpaceOnUse">
<stop stop-color="#10183B"/>
<stop offset="1" stop-color="#0A0E24"/>
</linearGradient>
<linearGradient id="paint1_linear" x1="512" y1="280" x2="512" y2="730" gradientUnits="userSpaceOnUse">
<stop stop-color="#00FFFF"/>
<stop offset="1" stop-color="#0077FF"/>
</linearGradient>
<linearGradient id="paint2_linear" x1="512" y1="192" x2="512" y2="420" gradientUnits="userSpaceOnUse">
<stop stop-color="#55FFFF"/>
<stop offset="1" stop-color="#00A3FF"/>
</linearGradient>
<linearGradient id="paint3_linear" x1="512" y1="720" x2="512" y2="820" gradientUnits="userSpaceOnUse">
<stop stop-color="#00FFFF"/>
<stop offset="1" stop-color="#0077FF"/>
</linearGradient>
</defs>
</svg>